<svg width="18" height="18" viewBox="0 0 18 18" fill="none" xmlns="http://www.w3.org/2000/svg">
<mask id="mask0" style="mask-type:alpha" maskUnits="userSpaceOnUse" x="0" y="0" width="18" height="18">
<rect width="18" height="18" rx="9" fill="#C4C4C4"/>
</mask>
<g mask="url(#mask0)">
<rect width="18" height="18" fill="white"/>
<rect width="18" height="18" fill="black" fill-opacity="0.08"/>
<path fill-rule="evenodd" clip-rule="evenodd" d="M12.042 13.5444C11.9617 13.4589 11.8496 13.4105 11.7324 13.4105C11.6151 13.4105 11.5031 13.4589 11.4228 13.5444L8.99996 15.6756L6.57716 13.5444C6.49687 13.4589 6.38482 13.4105 6.26756 13.4105C6.1503 13.4105 6.03825 13.4589 5.95796 13.5444C5.59796 13.8432 4.57556 14.7468 4.57556 14.7468C4.57556 14.7468 5.34236 16.086 5.79236 16.3848C6.24236 16.6836 6.27836 17.0004 7.23236 17.3172C8.18636 17.634 8.40236 17.634 8.61476 17.7852C8.71685 17.8595 8.81423 17.9401 8.90636 18.0264L8.92436 18.0912L8.99996 18.1848C9.54608 17.811 10.1424 17.5165 10.7712 17.31C11.7216 16.9932 11.7612 16.6764 12.2112 16.3776C12.6612 16.0788 13.428 14.7396 13.428 14.7396C13.428 14.7396 12.3948 13.8432 12.042 13.5444Z" fill="white"/>
<path fill-rule="evenodd" clip-rule="evenodd" d="M11.7431 14.7108C11.7431 13.746 11.6027 12.0792 11.6027 12.0792L8.99991 12.63L6.39711 12.072C6.39711 12.072 6.25671 13.7388 6.25671 14.7036C6.25671 15.6684 7.08111 17.4036 8.99631 17.4072V17.4072C10.9187 17.4108 11.7431 15.6756 11.7431 14.7108Z" fill="#E6E6E6"/>
<path fill-rule="evenodd" clip-rule="evenodd" d="M14.4323 15.2436C14.4323 15.2436 13.1975 15.5424 12.5531 16.2336C11.9087 16.9248 10.6775 17.3748 10.0799 17.562C9.67911 17.6872 9.3105 17.8985 8.99995 18.1812C8.69464 17.9008 8.33239 17.6896 7.93795 17.562C7.32235 17.3748 6.09475 16.9248 5.44675 16.2336C4.79875 15.5424 3.56755 15.2436 3.56755 15.2436L-0.172852 16.7772V21.1728H18.1871V16.7772L14.4323 15.2436Z" fill="#9E9E9E"/>
<path fill-rule="evenodd" clip-rule="evenodd" d="M5.03997 15.0204C5.18278 14.7218 5.37785 14.4511 5.61597 14.2212C5.83413 14.0611 6.06262 13.9156 6.29997 13.7856L6.33237 13.1988L5.95077 13.2564L4.75917 13.7892L4.58997 14.3616L5.03997 15.0204Z" fill="#9E9E9E"/>
<path fill-rule="evenodd" clip-rule="evenodd" d="M12.96 15.0204C12.8172 14.7218 12.6221 14.4511 12.384 14.2212C12.1658 14.0611 11.9373 13.9156 11.7 13.7856L11.6676 13.1988L12.0492 13.2564L13.2408 13.7892L13.41 14.3616L12.96 15.0204Z" fill="#9E9E9E"/>
<path fill-rule="evenodd" clip-rule="evenodd" d="M8.9999 18.228C8.9999 18.228 9.1259 17.7924 7.7831 17.346C6.81433 17.0836 5.9973 16.4321 5.5259 15.546C5.1335 14.8584 5.0651 14.3832 4.8959 14.1744C4.7267 13.9656 4.7699 13.8144 5.2163 13.656C5.6627 13.4976 6.3143 13.206 6.3143 13.206V12.9936C6.05952 13.1502 5.78459 13.2713 5.4971 13.3536C5.11969 13.4354 4.77437 13.6256 4.5035 13.9008L4.2083 14.304C4.09497 14.2983 3.98557 14.3463 3.9131 14.4336C3.80189 14.5868 3.7257 14.7625 3.6899 14.9484C3.6899 15.0348 3.4667 15.0204 3.3695 15.078C3.2723 15.1356 3.1715 15.384 3.3695 15.456C4.08215 15.7659 4.76229 16.1457 5.3999 16.59C6.12986 17.1407 6.97984 17.5108 7.8803 17.67C8.7767 17.8068 8.9999 18.228 8.9999 18.228Z" fill="#C7C7C7"/>
<path fill-rule="evenodd" clip-rule="evenodd" d="M8.99999 18.228C8.99999 18.228 8.86679 17.7924 10.2096 17.346C11.1784 17.0836 11.9954 16.4321 12.4668 15.546C12.8592 14.8584 12.9276 14.3832 13.0968 14.1744C13.266 13.9656 13.2228 13.8144 12.7764 13.656C12.33 13.4976 11.6964 13.206 11.6964 13.206V12.9936C11.9512 13.1502 12.2261 13.2713 12.5136 13.3536C12.891 13.4354 13.2363 13.6256 13.5072 13.9008C13.662 14.1096 13.9968 14.2932 14.0976 14.4336C14.2588 14.6645 14.4408 14.8801 14.6412 15.078C14.742 15.132 14.8392 15.384 14.6412 15.456C13.9248 15.7652 13.241 16.1451 12.6 16.59C11.87 17.1407 11.02 17.5108 10.1196 17.67C9.22319 17.8068 8.99999 18.228 8.99999 18.228Z" fill="#C7C7C7"/>
<path fill-rule="evenodd" clip-rule="evenodd" d="M13.0752 8.00759C12.9632 7.99135 12.8498 8.02564 12.7656 8.10119C12.75 7.81821 12.7754 7.53447 12.8412 7.25879C12.96 6.69719 12.6648 4.70999 12.6648 4.70999L8.99999 2.97119L5.34239 4.70999C5.34239 4.70999 5.05439 6.69719 5.16599 7.25879C5.23174 7.53447 5.25721 7.81821 5.24159 8.10119C5.15983 8.02388 5.04661 7.98925 4.93559 8.00759C4.78799 8.05799 4.66919 8.19119 4.80239 8.45039C4.92998 8.76364 4.99598 9.09855 4.99679 9.43679C4.97855 9.79649 5.08259 10.1518 5.29199 10.4448C5.52959 10.6788 5.65199 10.6932 5.65199 10.6932C5.68456 11.2423 5.82912 11.7789 6.07679 12.27C6.50399 12.8503 6.98622 13.388 7.51679 13.8756C7.89009 14.3024 8.43307 14.5423 8.99999 14.5308V14.5308C9.57317 14.539 10.1204 14.2924 10.494 13.8576C11.0246 13.37 11.5068 12.8323 11.934 12.252C12.1875 11.7685 12.3382 11.2378 12.3768 10.6932C12.3768 10.6932 12.4812 10.6932 12.7368 10.4448C12.9478 10.1525 13.052 9.79669 13.032 9.43679C13.034 9.09833 13.1013 8.76343 13.23 8.45039C13.3416 8.19119 13.2192 8.05799 13.0752 8.00759Z" fill="white"/>
<path fill-rule="evenodd" clip-rule="evenodd" d="M5.43235 9.44401C5.43235 9.44401 5.43235 8.64481 5.43235 7.93201C5.43235 7.21921 5.27395 6.45961 5.51155 6.05281C5.74915 5.64601 5.99035 6.08161 6.56635 5.54881C7.14235 5.01601 7.36555 4.73881 7.72915 4.72441C8.09275 4.71001 8.83435 4.87921 9.52915 4.62721C10.224 4.37521 10.6632 4.10881 10.9296 4.22041C11.196 4.33201 11.0016 4.89001 11.4912 5.17081C11.9808 5.45161 12.3048 5.35441 12.33 5.99881C12.3552 6.64321 12.3588 7.73401 12.402 8.15881C12.4452 8.58361 12.4848 9.23881 12.4848 9.23881C12.6559 8.96936 12.7971 8.68207 12.906 8.38201C12.9744 8.09041 13.2876 8.02201 13.266 7.78081C13.2444 7.53961 13.374 7.55761 13.4316 7.27681C13.4483 6.83198 13.4291 6.38653 13.374 5.94481C13.3452 5.37241 13.4316 4.57321 13.1796 4.24921C12.9276 3.92521 12.3804 3.52921 12.2976 3.32401C12.166 3.0921 11.9712 2.90233 11.736 2.77681C11.5956 2.73361 11.5956 2.03521 10.9368 1.83721C10.278 1.63921 10.0548 1.83721 10.0548 1.83721C9.59883 1.57038 9.06407 1.47107 8.54275 1.55641C8.23373 1.61052 7.94088 1.73357 7.68595 1.91641C7.47803 1.93579 7.27971 2.01312 7.11355 2.13961C6.92995 2.31961 6.81835 2.56081 6.60955 2.65801C6.40075 2.75521 5.99035 2.50321 5.75275 2.75521C5.59062 2.94902 5.46829 3.17288 5.39275 3.41401C5.20981 3.32431 4.99044 3.35729 4.84195 3.49681C4.45862 3.859 4.30394 4.40176 4.43875 4.91161C4.59136 5.24975 4.64383 5.62456 4.58995 5.99161C4.5852 6.40952 4.63727 6.82613 4.74475 7.23001C4.80235 7.48201 4.77355 8.01481 4.91395 8.14081C5.06322 8.28152 5.16191 8.46752 5.19475 8.67001C5.21995 8.86081 5.12275 8.95801 5.22715 9.15601C5.28505 9.25907 5.35385 9.35563 5.43235 9.44401Z" fill="#757575"/>
</g>
</svg>
