<svg width="28" height="30" viewBox="0 0 28 30" fill="none" xmlns="http://www.w3.org/2000/svg">
<path fill-rule="evenodd" clip-rule="evenodd" d="M17.76 2.99998H24.6666C26.1333 2.99998 27.3333 4.19998 27.3333 5.66665V27C27.3333 28.4666 26.1333 29.6666 24.6666 29.6666H3.33329C3.14663 29.6666 2.97329 29.6533 2.79996 29.6266C2.27996 29.52 1.81329 29.2533 1.45329 28.8933C1.21329 28.64 1.01329 28.36 0.879959 28.04C0.746626 27.72 0.666626 27.36 0.666626 27V5.66665C0.666626 5.29331 0.746626 4.94665 0.879959 4.63998C1.01329 4.31998 1.21329 4.02665 1.45329 3.78665C1.81329 3.42665 2.27996 3.15998 2.79996 3.05331C2.97329 3.01331 3.14663 2.99998 3.33329 2.99998H10.24C10.8 1.45331 12.2666 0.333313 14 0.333313C15.7333 0.333313 17.2 1.45331 17.76 2.99998ZM15 3.66665C15 3.11998 14.5466 2.66665 14 2.66665C13.4533 2.66665 13 3.11998 13 3.66665C13 4.21331 13.4533 4.66665 14 4.66665C14.5466 4.66665 15 4.21331 15 3.66665ZM3.33329 5.66665V27H24.6666V5.66665H3.33329ZM9.60663 6.99998L8.07663 8.52998L6.54663 6.99998L4.66663 8.87998L6.19663 10.41L4.66663 11.94L6.54663 13.82L8.07663 12.29L9.60663 13.82L11.4866 11.94L9.95663 10.41L11.4866 8.87998L9.60663 6.99998ZM20.0766 20.53L21.6066 19L23.4866 20.88L21.9566 22.41L23.4866 23.94L21.6066 25.82L20.0766 24.29L18.5466 25.82L16.6666 23.94L18.1966 22.41L16.6666 20.88L18.5466 19L20.0766 20.53ZM19.72 12.0867L21.4533 13.82L23.3333 11.94L18.3933 6.99998L13.4532 11.94L15.3332 13.82L17.0533 12.0999V13.6666C17.0533 15.1394 15.8594 16.3333 14.3866 16.3333H11.3333C8.74064 16.3333 6.58006 18.1833 6.09962 20.6352C5.24791 21.0805 4.66663 21.9723 4.66663 23C4.66663 24.4727 5.86053 25.6666 7.33329 25.6666C8.80605 25.6666 9.99996 24.4727 9.99996 23C9.99996 22.0761 9.53013 21.262 8.81637 20.7834C9.18084 19.7447 10.1701 19 11.3333 19H14.3866C17.3321 19 19.72 16.6122 19.72 13.6666V12.0867Z" fill="#1071FF"/>
</svg>
