<svg width="14" height="14" viewBox="0 0 14 14" fill="none" xmlns="http://www.w3.org/2000/svg">
<path fill-rule="evenodd" clip-rule="evenodd" d="M1.73354 2.91153C0.855943 4.04045 0.333344 5.45903 0.333344 6.99967C0.333344 7.30734 0.354185 7.61014 0.394534 7.90674L2.0219 7.47068C2.00742 7.31563 2.00001 7.15851 2.00001 6.99967C2.00001 5.91977 2.34237 4.91982 2.92446 4.10245L1.73354 2.91153ZM2.91207 1.73304L4.103 2.92397C4.70542 2.495 5.40701 2.19625 6.16668 2.0688V0.384583C4.94946 0.536367 3.83416 1.01629 2.91207 1.73304ZM6.16668 13.6148C3.73963 13.3121 1.71775 11.7048 0.824932 9.51687L2.45237 9.0808C3.13086 10.561 4.51077 11.6527 6.16668 11.9305V13.6148ZM7.83334 11.9305C10.1981 11.5338 12 9.47717 12 6.99967C12 4.52217 10.1981 2.46553 7.83334 2.0688V0.384583C11.1219 0.794665 13.6667 3.59999 13.6667 6.99967C13.6667 10.3994 11.1219 13.2047 7.83334 13.6148V11.9305Z" fill="black" fill-opacity="0.54"/>
</svg>
